<?xml version="1.0" encoding="utf-8"?>
<!-- Generator: Adobe Illustrator 24.0.2, SVG Export Plug-In . SVG Version: 6.00 Build 0)  -->
<svg version="1.1" id="Layer_1" xmlns="http://www.w3.org/2000/svg" xmlns:xlink="http://www.w3.org/1999/xlink" x="0px" y="0px"
	 viewBox="0 0 220 390" style="enable-background:new 0 0 220 390;" xml:space="preserve">
<style type="text/css">
	.st0{fill:#DEDAE8;}
	.st1{fill:#B385BA;}
	.st2{fill:none;stroke:#000000;stroke-width:0.75;stroke-miterlimit:10;}
	.st3{fill:#FFFFFF;}
	.st4{fill:#EFDAEC;}
	.st5{fill:none;stroke:#000000;stroke-width:0.7219;stroke-miterlimit:10;}
	.st6{fill:none;stroke:#000000;stroke-width:0.3549;stroke-miterlimit:10;}
	.st7{fill:none;}
	.st8{font-family:'Gabriola';}
	.st9{font-size:28px;}
	.st10{font-family:'BaskervilleURW-Reg';}
	.st11{font-size:12px;}
	.st12{font-size:11px;}
	.st13{fill:#C9ADC9;stroke:#000000;stroke-width:0.5;stroke-miterlimit:10;}
	.st14{fill:none;stroke:#000000;stroke-width:0.5;stroke-miterlimit:10;}
</style>
<rect y="-0.1" class="st0" width="220" height="390"/>
<g>
	<path class="st1" d="M26.3,341.3c0.9,0.9,0.9,3.6,1.8,3.6c12.7-0.9,27.2,3.6,39-0.9c2.7-10,0-20,1.8-30.8c0-2.7-0.9-4.5-0.9-7.3
		c-0.9-0.9-2.7-1.8-3.6-1.8c-10.9,0-22.7-1.8-33.6-0.9c-1.8,0-4.5,2.7-4.5,4.5C27.2,318.7,25.4,330.4,26.3,341.3L26.3,341.3z"/>
	<path class="st2" d="M26.3,341.3c0.9,0.9,0.9,3.6,1.8,3.6c12.7-0.9,27.2,3.6,39-0.9c2.7-10,0-20,1.8-30.8c0-2.7-0.9-4.5-0.9-7.3
		c-0.9-0.9-2.7-1.8-3.6-1.8c-10.9,0-22.7-1.8-33.6-0.9c-1.8,0-4.5,2.7-4.5,4.5C27.2,318.7,25.4,330.4,26.3,341.3L26.3,341.3z"/>
</g>
<g>
	<path class="st3" d="M48.1,314.1c6.3,0,11.8,7.3,10,13.6c-1.8,4.5-6.3,8.2-10.9,8.2s-10-3.6-10.9-9.1
		C35.4,319.6,40.8,313.2,48.1,314.1L48.1,314.1z"/>
	<path class="st2" d="M48.1,314.1c6.3,0,11.8,7.3,10,13.6c-1.8,4.5-6.3,8.2-10.9,8.2s-10-3.6-10.9-9.1
		C35.4,319.6,40.8,313.2,48.1,314.1L48.1,314.1z"/>
</g>
<g>
	<path class="st3" d="M62.6,306.9c0.9,0,2.7,0.9,2.7,2.7c0,0.9-0.9,2.7-2.7,2.7c-0.9,0-2.7-0.9-2.7-2.7
		C59.9,308.7,60.8,307.8,62.6,306.9L62.6,306.9z"/>
	<path class="st2" d="M62.6,306.9c0.9,0,2.7,0.9,2.7,2.7c0,0.9-0.9,2.7-2.7,2.7c-0.9,0-2.7-0.9-2.7-2.7
		C59.9,308.7,60.8,307.8,62.6,306.9L62.6,306.9z"/>
</g>
<g>
	<path class="st4" d="M25.8,244.1c14.5,0,28.2,0,42.7,0c0,9.1,0,18.2,0,27.2c-14.5,0-28.2,0-42.7,0C24,262.3,26.7,253.2,25.8,244.1
		L25.8,244.1z"/>
	<path class="st5" d="M25.8,244.1c14.5,0,28.2,0,42.7,0c0,9.1,0,18.2,0,27.2c-14.5,0-28.2,0-42.7,0C24,262.3,26.7,253.2,25.8,244.1
		L25.8,244.1z"/>
</g>
<g>
	<path class="st4" d="M68.8,244.1c-6.4,5.4-13.6,10-21.8,13.6c-6.4-5.4-13.6-10-20.9-13.6"/>
	<path class="st6" d="M68.8,244.1c-6.4,5.4-13.6,10-21.8,13.6c-6.4-5.4-13.6-10-20.9-13.6"/>
</g>
<rect x="92.8" y="27.1" class="st7" width="113.3" height="16.3"/>
<text transform="matrix(1 0 0 1 32.2252 54.3609)" class="st8 st9">Gabrielle Romano</text>
<rect x="115" y="47.6" class="st7" width="90.9" height="9.5"/>
<text transform="matrix(1 0 0 1 66 85.196)" class="st10 st11">Graphic Designer </text>
<rect x="143.8" y="66.6" class="st7" width="11" height="11.9"/>
<text transform="matrix(1 0 0 1 104.9725 103.0685)" class="st10 st11">&amp;</text>
<rect x="123.5" y="75.1" class="st7" width="52" height="10.1"/>
<text transform="matrix(1 0 0 1 75.5997 120.3112)" class="st10 st11">Photographer</text>
<rect x="98" y="185.1" class="st7" width="111.3" height="9.8"/>
<text transform="matrix(1 0 0 1 88.8803 194.9547)" class="st10 st12">gabbyangelina.github.io</text>
<rect x="99.1" y="251.4" class="st7" width="98" height="9.7"/>
<text transform="matrix(1 0 0 1 88.8803 260.7232)" class="st10 st12">gabbyr814@gmail.com</text>
<rect x="99.1" y="319.6" class="st7" width="78.6" height="12.1"/>
<text transform="matrix(1 0 0 1 91.4334 328.9275)" class="st10 st12">@gabbyangeliina</text>
<circle class="st13" cx="47" cy="196.7" r="21.9"/>
<path class="st14" d="M28.4,185.2c0,0,21.2,3.8,37.3,0"/>
<line class="st14" x1="25.2" y1="196" x2="69" y2="196.7"/>
<line class="st14" x1="47" y1="174.8" x2="47.7" y2="218.5"/>
<path class="st14" d="M46.7,175.3c0,0-20.3,20.7,0.6,42.8"/>
<path class="st14" d="M48,218.1c0,0,20.1-20.7-0.6-42.8"/>
<path class="st14" d="M28.4,207.5c0,0,21.2-3.8,37.3,0"/>
<path class="st14" d="M52.8,217.7c0,0,25.7-20.5-0.8-42.2"/>
<path class="st14" d="M41.4,175.7c0,0-25.3,20.6,0.7,42.4"/>
</svg>
