<?xml version="1.0" encoding="utf-8"?>
<!-- Generator: Adobe Illustrator 24.0.2, SVG Export Plug-In . SVG Version: 6.00 Build 0)  -->
<svg version="1.1" id="Layer_1" xmlns="http://www.w3.org/2000/svg" xmlns:xlink="http://www.w3.org/1999/xlink" x="0px" y="0px"
	 viewBox="0 0 144 144" style="enable-background:new 0 0 144 144;" xml:space="preserve">
<style type="text/css">
	.st0{fill:#231F20;}
</style>
<path class="st0" d="M139.7,119.4C139.7,119.2,139.7,119.2,139.7,119.4h-0.1c-0.4,0-0.7-0.1-1.2-0.3c-0.4-0.1-0.9-0.4-1.5-0.7
	c-0.6-0.3-1.2-0.7-1.9-1.3c-0.9-0.7-1.9-1.5-2.9-2.5c-1-1-2.4-2.2-3.7-3.7c-1.3-1.5-2.9-3.1-4.6-5c-1-1.2-9.3-10.3-10.4-11.8
	c1.2-0.9,2.2-1.8,3.2-2.8c0.4-0.4,0.9-1,1.3-1.5c1.2-1,2.2-2.2,3.1-3.5c1.2-1.8,2.1-3.8,2.6-5.9c0.4-2.2,0.6-4.4,0.1-6.9
	c-0.4-2.6-1.2-4.9-2.5-6.6c-1.3-1.8-2.9-3.1-4.9-4c-1.9-0.9-4-1.3-6.3-1.5c-3.8-0.1-8.1,0.4-12.6,1.5c-1.9,0.4-3.8,0.9-5.7,1.5
	c-0.1,0-0.1,0-0.3,0c-7.2-2.6-11-2.9-17.9,0.4c0-1,0-2.2,0-3.2c-0.1-3.1-0.3-6-0.7-8.8c-0.3-2.4-0.7-4.3-1-5.9
	c-0.4-1.8-0.9-3.1-1.3-4c-0.7-1.3-1.8-2.4-2.8-2.8c-1-0.4-2.2-0.6-3.5-0.4c-0.6,0.1-1.2,0.1-1.8,0.4c-0.4,0.1-0.9,0.3-1.5,0.4
	l-2.8,1l1,2.8c0.1,0.6,0.4,1,0.6,1.5c0.1,0.4,0.3,0.9,0.4,1.3c0.1,0.4,0.1,0.7,0.3,1.2c0.1,0.4,0.1,0.9,0.3,1.3
	c0.1,1.5,0.3,2.8,0.1,4.3c-0.1,1.2-0.4,2.4-0.9,3.4c-0.4,0.9-1.2,1.8-2.1,2.4c-0.9,0.6-2.1,1.2-3.7,1.3c-1.8,0.3-3.4,0.1-5-0.4
	c-1.6-0.6-2.9-1.5-4.4-2.9c-1.3-1.5-2.6-3.4-3.7-5.7c-1-2.5-1.9-5.3-2.4-8.7c-0.3-1.8-0.4-3.5-0.4-5.3c0-1.8,0.1-3.5,0.6-5.1
	c0.3-1.6,0.7-3.1,1.5-4.6c0.6-1.3,1.3-2.5,2.4-3.5c0.9-1,2.1-1.9,3.2-2.6c1.9-1,4.4-1.8,7.1-1.5c0.9,0,1.6,0.3,2.4,0.6
	c0.6,0.3,1,0.6,1.5,1c0.3,0.4,0.6,0.9,0.6,1.6c0.1,0.4,0.1,1,0,1.8l-0.1,1.6l2.2,1.6l0.9,0.1c1.5,0.1,3.4-0.1,4.7-1
	c0.9-0.4,1.5-1,2.1-1.8c0.6-0.7,1-1.6,1.3-2.5c0.3-0.9,0.3-1.9,0.1-2.9c-0.3-1.9-1.2-3.5-2.5-5c-1.2-1.2-2.6-2.1-4.4-2.8
	c-1.6-0.6-3.4-1-5.3-1.2c-1.9-0.1-3.8-0.1-5.7,0.1c-3.1,0.4-5.9,1.3-8.4,2.5s-4.7,2.8-6.6,4.6c-1.9,1.8-3.4,3.8-4.7,6
	c-1.2,2.2-2.2,4.6-2.9,6.9c-0.7,2.4-1,4.9-1.2,7.4c-0.1,2.5,0,5,0.3,7.4c0.4,2.9,1,5.4,2.1,7.8c0.9,2.4,2.1,4.6,3.2,6.3
	c1.3,1.9,2.8,3.4,4.4,4.7c1.6,1.3,3.4,2.4,5.3,3.1s3.8,1.3,5.9,1.5c3.5,0.4,7.4,0,10.6-1.3c1.5-0.6,2.9-1.5,4.1-2.5
	c0.1,0,0.1-0.1,0.3-0.1l-1,17.6c-0.1,0.4-0.1,1-0.3,1.5c-1.9-0.4-4-0.9-5.9-1.3c-3.1-0.7-6-1.3-9.1-1.8c-3.1-0.4-6.2-0.7-9.3-0.9
	c-6.3-0.1-12.6,0.7-17.8,2.6c-2.5,1-4.9,2.2-6.8,3.5c-2.1,1.3-3.8,2.9-5.1,4.6c-1.5,1.6-2.6,3.5-3.5,5.3c-0.9,1.9-1.5,3.8-1.8,5.7
	c-0.3,1.9-0.3,4,0,5.9c0.3,1.8,0.7,3.5,1.6,5.1c0.7,1.6,1.8,3.2,3.1,4.7c1.3,1.5,2.8,2.6,4.6,3.7c1.8,1,3.7,1.9,5.7,2.5
	c2.1,0.6,4.4,1,7.1,1.2c2.5,0.1,5.3,0,8.1-0.4c3.2-0.4,6.2-1.3,9-2.4c2.8-1,5.4-2.4,7.8-4c2.4-1.6,4.6-3.4,6.6-5.4
	c1.9-1.9,3.8-4.1,5.4-6.5c1.6-2.4,3.1-4.7,4.4-7.4c0.6-1.3,1.2-2.6,1.8-4c0.3,0.1,0.4,0.1,0.7,0.1c2.4,0.4,4.7,0.9,7.1,1.2
	c2.1,0.3,12.5,1.3,17.2,1.6c0.4,3.4,0.6,5.4,1,9c0.4,4.1,0.9,8.5,1.5,13.2l0.1,0.9c0,0.1,0,0.3,0,0.4v0.1v0.6h0.1
	c0.3,0.7,1.2,1.3,2.2,1.2c0,0,0,0,0.1,0c2.1-0.3,4-0.7,6-1c0.3,0,0.4-0.1,0.6-0.3c1-0.3,1.5-1.3,1.3-2.2l0,0l-1.5-12.9
	c-0.4-3.7-0.6-5.9-1-9.4c0-0.1,0-0.1,0-0.3c0.3,0,0.6-0.1,0.9-0.1c1.3,1.6,9.7,11.2,10.9,12.5c0.3,0.4,0.4,0.6,0.6,0.7
	c0.1,0.1,0.3,0.3,0.4,0.4c0.1,0.1,0.1,0.1,0.3,0.3c3.2,3.5,8.5,9.3,9.6,10.1c1.5,1.3,2.6,2.4,3.7,3.1c0.7,0.4,1.3,0.9,1.9,1.2
	c0.6,0.4,1.3,0.7,1.9,0.9c0.7,0.3,1.3,0.4,2.1,0.4c0.3,0,0.4,0,0.7,0l0,0h0.1c0,0,0,0,0.1,0c0.3,0,0.6,0,0.9-0.1
	c1.3-0.4,2.2-1.5,3.1-2.5c0.4-0.6,0.9-1,1-1.8c0.3-0.7,0.3-1.5,0.3-2.2C141.3,120.7,140.7,119.5,139.7,119.4z M55.9,101.6
	c-1.9,3.2-4.1,6-6.6,8.4c-2.5,2.2-5.1,4.1-7.9,5.4c-2.9,1.3-6,2.2-9.3,2.8c-2.2,0.3-4.4,0.4-6.3,0.3c-1.9-0.1-3.7-0.4-5.1-1
	c-1.5-0.4-2.9-1.2-4.1-1.9s-2.2-1.6-3.1-2.6c-0.9-1-1.5-2.1-2.1-3.1c-0.6-1.2-0.9-2.2-1-3.4c-0.1-1.2-0.1-2.4,0-3.5
	c0.1-1.2,0.4-2.4,1-3.4c0.6-1.2,1.2-2.2,2.2-3.2c0.9-1,2.1-2.1,3.4-2.9c1.3-0.9,2.9-1.8,4.9-2.4c1.8-0.7,4-1.2,6.2-1.6
	c2.8-0.4,5.6-0.6,8.4-0.4c2.9,0.1,5.9,0.4,8.7,0.9c2.9,0.4,5.9,1,8.8,1.8c1.9,0.4,4,0.9,5.9,1.5C58.7,96,57.4,99,55.9,101.6z
	 M90.9,89.5c-4.3-0.3-8.5-0.4-12.8-0.7c-0.1,0-0.3-0.1-0.4-0.1c-2.1-0.1-4-0.6-5.9-1c-0.1,0-0.3-0.1-0.4-0.1l0,0l-0.1-0.1L71,87.2
	c0-0.1-0.1-0.3-0.1-0.3l0,0l0,0c0.3-2.2,0.7-4.4,1-6.6c0.3-1.9,0.9-3.4,1.8-5c0.7-1.5,1.6-2.9,3.2-3.7c1.6-0.7,3.8-1,5.6-1
	c3.5-0.1,5.7,3.5,6.8,6.5C90.3,80.9,90.4,85.3,90.9,89.5z M106.3,89.4c-1.5,0.4-2.8,0.7-4.3,1.2c-0.6-3.2-1.2-6.6-1.5-10
	c0-0.1-0.1-0.4-0.1-0.6c0-0.3,0-0.6-0.1-1c-0.4-3.2-0.7-6.5-1.2-9.7c0.1-0.3,0.4-0.6,0.7-0.9c1.5-1.3,3.5-1.5,5.4-1.2
	c7.2,1,11.6,9,8.2,15.6C112,85.6,109.2,88.4,106.3,89.4z"/>
</svg>
